<svg width="115" height="20" viewBox="0 0 115 20" fill="none" xmlns="http://www.w3.org/2000/svg">
<path d="M5.8651e-05 19.704V0.264001H4.92006C6.61606 0.264001 7.93606 0.480001 8.88006 0.912001C9.82406 1.328 10.4881 1.992 10.8721 2.904C11.2561 3.8 11.4481 4.968 11.4481 6.408V13.464C11.4481 14.92 11.2561 16.112 10.8721 17.04C10.4881 17.952 9.82406 18.624 8.88006 19.056C7.95206 19.488 6.64806 19.704 4.96806 19.704H5.8651e-05ZM4.29606 16.728H4.96806C5.62406 16.728 6.09606 16.632 6.38406 16.44C6.67206 16.248 6.84806 15.96 6.91206 15.576C6.99206 15.192 7.03206 14.712 7.03206 14.136V5.664C7.03206 5.088 6.98406 4.624 6.88806 4.272C6.80806 3.92 6.62406 3.664 6.33606 3.504C6.04806 3.344 5.58406 3.264 4.94406 3.264H4.29606V16.728ZM19.1506 19.992C17.6946 19.992 16.5426 19.736 15.6946 19.224C14.8466 18.712 14.2386 17.976 13.8706 17.016C13.5026 16.056 13.3186 14.912 13.3186 13.584V6.36C13.3186 5.016 13.5026 3.872 13.8706 2.928C14.2386 1.984 14.8466 1.264 15.6946 0.768002C16.5426 0.256001 17.6946 1.43051e-06 19.1506 1.43051e-06C20.6226 1.43051e-06 21.7826 0.256001 22.6306 0.768002C23.4946 1.264 24.1106 1.984 24.4786 2.928C24.8466 3.872 25.0306 5.016 25.0306 6.36V13.584C25.0306 14.912 24.8466 16.056 24.4786 17.016C24.1106 17.976 23.4946 18.712 22.6306 19.224C21.7826 19.736 20.6226 19.992 19.1506 19.992ZM19.1506 16.944C19.5986 16.944 19.9266 16.832 20.1346 16.608C20.3426 16.384 20.4786 16.096 20.5426 15.744C20.6066 15.392 20.6386 15.032 20.6386 14.664V5.304C20.6386 4.92 20.6066 4.56 20.5426 4.224C20.4786 3.872 20.3426 3.584 20.1346 3.36C19.9266 3.136 19.5986 3.024 19.1506 3.024C18.7346 3.024 18.4226 3.136 18.2146 3.36C18.0066 3.584 17.8706 3.872 17.8066 4.224C17.7426 4.56 17.7106 4.92 17.7106 5.304V14.664C17.7106 15.032 17.7346 15.392 17.7826 15.744C17.8466 16.096 17.9746 16.384 18.1666 16.608C18.3746 16.832 18.7026 16.944 19.1506 16.944ZM38.3937 19.992C36.9217 19.992 35.7537 19.728 34.8897 19.2C34.0417 18.656 33.4417 17.904 33.0897 16.944C32.7377 15.968 32.5617 14.824 32.5617 13.512V6.504C32.5617 5.16 32.7377 4.008 33.0897 3.048C33.4417 2.072 34.0417 1.32 34.8897 0.792001C35.7537 0.264001 36.9217 1.43051e-06 38.3937 1.43051e-06C39.8337 1.43051e-06 40.9537 0.240002 41.7537 0.720002C42.5697 1.184 43.1457 1.84 43.4817 2.688C43.8177 3.536 43.9857 4.512 43.9857 5.616V7.296H39.7857V5.352C39.7857 4.968 39.7617 4.6 39.7137 4.248C39.6817 3.896 39.5697 3.608 39.3777 3.384C39.1857 3.144 38.8577 3.024 38.3937 3.024C37.9457 3.024 37.6097 3.144 37.3857 3.384C37.1777 3.624 37.0417 3.928 36.9777 4.296C36.9297 4.648 36.9057 5.024 36.9057 5.424V14.568C36.9057 15 36.9377 15.4 37.0017 15.768C37.0817 16.12 37.2257 16.408 37.4337 16.632C37.6577 16.84 37.9777 16.944 38.3937 16.944C38.8417 16.944 39.1617 16.832 39.3537 16.608C39.5457 16.368 39.6657 16.064 39.7137 15.696C39.7617 15.328 39.7857 14.952 39.7857 14.568V12.528H43.9857V14.208C43.9857 15.312 43.8177 16.304 43.4817 17.184C43.1617 18.048 42.5937 18.736 41.7777 19.248C40.9777 19.744 39.8497 19.992 38.3937 19.992ZM51.4851 19.992C49.9971 19.992 48.8291 19.752 47.9811 19.272C47.1491 18.776 46.5651 18.064 46.2291 17.136C45.8931 16.192 45.7251 15.04 45.7251 13.68V0.264001H49.9731V14.328C49.9731 14.728 50.0051 15.128 50.0691 15.528C50.1331 15.928 50.2691 16.256 50.4771 16.512C50.7011 16.768 51.0371 16.896 51.4851 16.896C51.9491 16.896 52.2851 16.768 52.4931 16.512C52.7011 16.256 52.8291 15.928 52.8771 15.528C52.9411 15.128 52.9731 14.728 52.9731 14.328V0.264001H57.2451V13.68C57.2451 15.04 57.0691 16.192 56.7171 17.136C56.3811 18.064 55.7971 18.776 54.9651 19.272C54.1331 19.752 52.9731 19.992 51.4851 19.992ZM59.4985 19.704V0.264001H63.7945V16.8H68.2585V19.704H59.4985ZM69.7471 19.704V3.456H66.8191V0.264001H76.9711V3.456H74.0671V19.704H69.7471ZM83.8186 19.992C82.3306 19.992 81.1626 19.752 80.3146 19.272C79.4826 18.776 78.8986 18.064 78.5626 17.136C78.2266 16.192 78.0586 15.04 78.0586 13.68V0.264001H82.3066V14.328C82.3066 14.728 82.3386 15.128 82.4026 15.528C82.4666 15.928 82.6026 16.256 82.8106 16.512C83.0346 16.768 83.3706 16.896 83.8186 16.896C84.2826 16.896 84.6186 16.768 84.8266 16.512C85.0346 16.256 85.1626 15.928 85.2106 15.528C85.2746 15.128 85.3066 14.728 85.3066 14.328V0.264001H89.5786V13.68C89.5786 15.04 89.4026 16.192 89.0506 17.136C88.7146 18.064 88.1306 18.776 87.2986 19.272C86.4666 19.752 85.3066 19.992 83.8186 19.992ZM91.8319 19.704V0.264001H97.1839C98.4959 0.264001 99.6319 0.408001 100.592 0.696001C101.552 0.984001 102.296 1.504 102.824 2.256C103.368 2.992 103.64 4.04 103.64 5.4C103.64 6.2 103.576 6.912 103.448 7.536C103.32 8.16 103.08 8.704 102.728 9.168C102.392 9.616 101.904 9.992 101.264 10.296L103.928 19.704H99.4879L97.3519 10.992H96.1279V19.704H91.8319ZM96.1279 8.52H97.3279C97.9359 8.52 98.4079 8.416 98.7439 8.208C99.0799 7.984 99.3119 7.672 99.4399 7.272C99.5839 6.856 99.6559 6.36 99.6559 5.784C99.6559 4.952 99.5039 4.304 99.1999 3.84C98.8959 3.376 98.3359 3.144 97.5199 3.144H96.1279V8.52ZM105.743 19.704V0.264001H114.479V3.192H110.039V8.016H113.423V10.992H110.039V16.8H114.527V19.704H105.743Z" fill="white"/>
</svg>
