<svg width="120" height="20" viewBox="0 0 120 20" fill="none" xmlns="http://www.w3.org/2000/svg">
<path d="M5.8651e-05 19.7041V0.2641H4.92006C6.61606 0.2641 7.93606 0.4801 8.88006 0.9121C9.82406 1.3281 10.4881 1.9921 10.8721 2.9041C11.2561 3.8001 11.4481 4.9681 11.4481 6.4081V13.4641C11.4481 14.9201 11.2561 16.1121 10.8721 17.0401C10.4881 17.9521 9.82406 18.6241 8.88006 19.0561C7.95206 19.4881 6.64806 19.7041 4.96806 19.7041H5.8651e-05ZM4.29606 16.7281H4.96806C5.62406 16.7281 6.09606 16.6321 6.38406 16.4401C6.67206 16.2481 6.84806 15.9601 6.91206 15.5761C6.99206 15.1921 7.03206 14.7121 7.03206 14.1361V5.6641C7.03206 5.0881 6.98406 4.6241 6.88806 4.2721C6.80806 3.9201 6.62406 3.6641 6.33606 3.5041C6.04806 3.3441 5.58406 3.2641 4.94406 3.2641H4.29606V16.7281ZM19.1506 19.9921C17.6946 19.9921 16.5426 19.7361 15.6946 19.2241C14.8466 18.7121 14.2386 17.9761 13.8706 17.0161C13.5026 16.0561 13.3186 14.9121 13.3186 13.5841V6.3601C13.3186 5.0161 13.5026 3.8721 13.8706 2.9281C14.2386 1.9841 14.8466 1.2641 15.6946 0.768101C16.5426 0.256101 17.6946 0.000100613 19.1506 0.000100613C20.6226 0.000100613 21.7826 0.256101 22.6306 0.768101C23.4946 1.2641 24.1106 1.9841 24.4786 2.9281C24.8466 3.8721 25.0306 5.0161 25.0306 6.3601V13.5841C25.0306 14.9121 24.8466 16.0561 24.4786 17.0161C24.1106 17.9761 23.4946 18.7121 22.6306 19.2241C21.7826 19.7361 20.6226 19.9921 19.1506 19.9921ZM19.1506 16.9441C19.5986 16.9441 19.9266 16.8321 20.1346 16.6081C20.3426 16.3841 20.4786 16.0961 20.5426 15.7441C20.6066 15.3921 20.6386 15.0321 20.6386 14.6641V5.3041C20.6386 4.9201 20.6066 4.5601 20.5426 4.2241C20.4786 3.8721 20.3426 3.5841 20.1346 3.3601C19.9266 3.1361 19.5986 3.0241 19.1506 3.0241C18.7346 3.0241 18.4226 3.1361 18.2146 3.3601C18.0066 3.5841 17.8706 3.8721 17.8066 4.2241C17.7426 4.5601 17.7106 4.9201 17.7106 5.3041V14.6641C17.7106 15.0321 17.7346 15.3921 17.7826 15.7441C17.8466 16.0961 17.9746 16.3841 18.1666 16.6081C18.3746 16.8321 18.7026 16.9441 19.1506 16.9441ZM38.3937 19.9921C36.9217 19.9921 35.7537 19.7281 34.8897 19.2001C34.0417 18.6561 33.4417 17.9041 33.0897 16.9441C32.7377 15.9681 32.5617 14.8241 32.5617 13.5121V6.5041C32.5617 5.1601 32.7377 4.0081 33.0897 3.0481C33.4417 2.0721 34.0417 1.3201 34.8897 0.7921C35.7537 0.264101 36.9217 0.000100613 38.3937 0.000100613C39.8337 0.000100613 40.9537 0.240101 41.7537 0.720101C42.5697 1.1841 43.1457 1.8401 43.4817 2.6881C43.8177 3.5361 43.9857 4.5121 43.9857 5.6161V7.2961H39.7857V5.3521C39.7857 4.9681 39.7617 4.6001 39.7137 4.2481C39.6817 3.8961 39.5697 3.6081 39.3777 3.3841C39.1857 3.1441 38.8577 3.0241 38.3937 3.0241C37.9457 3.0241 37.6097 3.1441 37.3857 3.3841C37.1777 3.6241 37.0417 3.9281 36.9777 4.2961C36.9297 4.6481 36.9057 5.0241 36.9057 5.4241V14.5681C36.9057 15.0001 36.9377 15.4001 37.0017 15.7681C37.0817 16.1201 37.2257 16.4081 37.4337 16.6321C37.6577 16.8401 37.9777 16.9441 38.3937 16.9441C38.8417 16.9441 39.1617 16.8321 39.3537 16.6081C39.5457 16.3681 39.6657 16.0641 39.7137 15.6961C39.7617 15.3281 39.7857 14.9521 39.7857 14.5681V12.5281H43.9857V14.2081C43.9857 15.3121 43.8177 16.3041 43.4817 17.1841C43.1617 18.0481 42.5937 18.7361 41.7777 19.2481C40.9777 19.7441 39.8497 19.9921 38.3937 19.9921ZM51.4851 19.9921C49.9971 19.9921 48.8291 19.7521 47.9811 19.2721C47.1491 18.7761 46.5651 18.0641 46.2291 17.1361C45.8931 16.1921 45.7251 15.0401 45.7251 13.6801V0.2641H49.9731V14.3281C49.9731 14.7281 50.0051 15.1281 50.0691 15.5281C50.1331 15.9281 50.2691 16.2561 50.4771 16.5121C50.7011 16.7681 51.0371 16.8961 51.4851 16.8961C51.9491 16.8961 52.2851 16.7681 52.4931 16.5121C52.7011 16.2561 52.8291 15.9281 52.8771 15.5281C52.9411 15.1281 52.9731 14.7281 52.9731 14.3281V0.2641H57.2451V13.6801C57.2451 15.0401 57.0691 16.1921 56.7171 17.1361C56.3811 18.0641 55.7971 18.7761 54.9651 19.2721C54.1331 19.7521 52.9731 19.9921 51.4851 19.9921ZM59.4985 19.7041V0.2641H63.7945V16.8001H68.2585V19.7041H59.4985ZM69.7471 19.7041V3.4561H66.8191V0.2641H76.9711V3.4561H74.0671V19.7041H69.7471ZM83.8186 19.9921C82.3306 19.9921 81.1626 19.7521 80.3146 19.2721C79.4826 18.7761 78.8986 18.0641 78.5626 17.1361C78.2266 16.1921 78.0586 15.0401 78.0586 13.6801V0.2641H82.3066V14.3281C82.3066 14.7281 82.3386 15.1281 82.4026 15.5281C82.4666 15.9281 82.6026 16.2561 82.8106 16.5121C83.0346 16.7681 83.3706 16.8961 83.8186 16.8961C84.2826 16.8961 84.6186 16.7681 84.8266 16.5121C85.0346 16.2561 85.1626 15.9281 85.2106 15.5281C85.2746 15.1281 85.3066 14.7281 85.3066 14.3281V0.2641H89.5786V13.6801C89.5786 15.0401 89.4026 16.1921 89.0506 17.1361C88.7146 18.0641 88.1306 18.7761 87.2986 19.2721C86.4666 19.7521 85.3066 19.9921 83.8186 19.9921ZM91.8319 19.7041V0.2641H97.1839C98.4959 0.2641 99.6319 0.4081 100.592 0.6961C101.552 0.9841 102.296 1.5041 102.824 2.2561C103.368 2.9921 103.64 4.0401 103.64 5.4001C103.64 6.2001 103.576 6.9121 103.448 7.5361C103.32 8.1601 103.08 8.7041 102.728 9.1681C102.392 9.6161 101.904 9.9921 101.264 10.2961L103.928 19.7041H99.4879L97.3519 10.9921H96.1279V19.7041H91.8319ZM96.1279 8.5201H97.3279C97.9359 8.5201 98.4079 8.4161 98.7439 8.2081C99.0799 7.9841 99.3119 7.6721 99.4399 7.2721C99.5839 6.8561 99.6559 6.3601 99.6559 5.7841C99.6559 4.9521 99.5039 4.3041 99.1999 3.8401C98.8959 3.3761 98.3359 3.1441 97.5199 3.1441H96.1279V8.5201ZM105.743 19.7041V0.2641H114.479V3.1921H110.039V8.0161H113.423V10.9921H110.039V16.8001H114.527V19.7041H105.743ZM115.661 19.7041V16.0081H119.357V19.7041H115.661Z" fill="white"/>
</svg>
